/* XPM */
static char * BackGround2_xpm[] = {
"50 50 2 1",
" 	c #999F8E",
".	c #3B6983",
"                          .                       ",
"                                                  ",
"                                                  ",
"                                                  ",
"                                                  ",
"                                                  ",
"                                                  ",
"                                                  ",
"                                                  ",
"                                                  ",
"                                                  ",
"                                                  ",
"                                                  ",
"                                                  ",
"                                                  ",
"                                                  ",
"                          .                       ",
"                          .                       ",
"                          .                       ",
"                          .                       ",
"                          .                       ",
"                          .                       ",
"                          .                       ",
"           ........     ........     ..........   ",
"           ........     ........     ..........   ",
"           .                             .        ",
"           .                             .        ",
"           .                             .        ",
"           .                             .        ",
"           .                             .        ",
"           .                             .        ",
"                                         .        ",
"                                         .        ",
"                                         .        ",
"                                         .        ",
"                                         .        ",
"                                         .        ",
"                                         .        ",
"                                         .        ",
"                                         .        ",
"                                         .        ",
"                                         .        ",
"           .                             .        ",
"           .                             .        ",
"           .                             .        ",
"           .                             .        ",
"           .                             .        ",
"           .                             .        ",
"           .                             .        ",
"           .                             .        "};
