/* XPM */
static char * colection2_xpm[] = {
"50 50 5 1",
" 	c None",
".	c #FAE898",
"+	c #A84111",
"@	c #748F93",
"#	c #323C39",
"                                                  ",
"                                                  ",
"                                                  ",
"                                                  ",
"          .......................++               ",
"          .......................++               ",
"          .......................++               ",
"       ........................+++++++            ",
"       ........................+++++++            ",
"       ........................+++++++            ",
"       ........................+++++++            ",
"       ........................+++++++            ",
"          .......................+++++            ",
"          .......................+++++            ",
"              +++++++++++++++++++++...            ",
"              +++++++++++++++++++++...            ",
"              +++++++++++++++++++++...            ",
"              ........................            ",
"              ........................            ",
"              ..@@@@@@@@..#######.....            ",
"              ..@@@@@@@@..#######.....            ",
"              ........................            ",
"              ........................            ",
"              ..########@@...@@@@.....            ",
"              ..########@@...@@@@.....            ",
"              ..########@@...@@@@.....            ",
"              ........................            ",
"              ........................            ",
"              ..@@@@@#####@@@..@@.....            ",
"              ..@@@@@#####@@@..@@.....            ",
"              ..@@@@@#####@@@..@@.....            ",
"              ........................            ",
"              ..@@@@@...#########.....            ",
"              ..@@@@@...#########.....            ",
"              ..@@@@@...#########.....            ",
"              ..@@@@@...#########.....            ",
"              ........................++++        ",
"              ..#####@@@..@@@####.....++++++      ",
"              ..#####@@@..@@@####.....++++++      ",
"              ..#####@@@..@@@####.....++++++      ",
"              ........................++++++      ",
"              ........................++++++      ",
"                ........................++        ",
"                ........................++        ",
"                ........................++        ",
"                                                  ",
"                                                  ",
"                                                  ",
"                                                  ",
"                                                  "};
