/* XPM */
static char * enemy_xpm[] = {
"50 50 6 1",
" 	c None",
".	c #5A5875",
"+	c #8D768A",
"@	c #00EDFF",
"#	c #0C1317",
"$	c #31314B",
"                                                  ",
"                        .. ..                     ",
"                        .. ..                     ",
"                     .  .. .. ++                  ",
"                     .++...++.++                  ",
"                     .++...++.++                  ",
"                     .++...++...                  ",
"                     ...........                  ",
"                     ...........                  ",
"                     .@@..@@@...                  ",
"                     .@@..@@@...                  ",
"                   ++...##......+                 ",
"           ..   ...++.#####.....+...   ..         ",
"           ..   ...++.#####.....+...   ..         ",
"           ........++.#####...##+........         ",
"           ........++.#####...##+........         ",
"           ........++.#####..#..$++......         ",
"           ++........########....$$....++         ",
"           ++........########....$$....++         ",
"             +.......$...........$$....++         ",
"           $$$+++++$$......++......$+++$$$++      ",
"           $$$+++++$$......++......$+++$$$++      ",
"           $$$$$$$$........++....$$$$$######++    ",
"           $$$$$$  ........++....$$$$$.#######+   ",
"           $$$$$$  ........++....$$$$$.#######+   ",
"          ...$$$$  ........++....$$$.....$#####++ ",
"        ......$$   ..............$$....$$.#####++ ",
"        ......$$   ..............$$....$$.#####++ ",
"        ........   ++...........+##...$.....###++ ",
"          ....@@ ....+++++++++++.#####$.....###++ ",
"          ....@@ ....+++++++++++.#####$.....###++ ",
"          .@@... .......++++++...###$$......###.. ",
"          .@@@.. .....$$......$$.######...#####.. ",
"          .@@@.. .....$$......$$.######...#####.. ",
"          @@@.   ....$..$$....$$.#############$   ",
"          @@@.   ....$..$$....$$.#############$   ",
"       @  @@@    $$$$...$$....$$$  #########$$    ",
"        @@@@@    .......  ...$$$$   ######$$      ",
"        @@@@@    .......  ...$$$$   ######$$      ",
"       @@@@@@    .......   $$$$$$                 ",
"       @@@@@@    .......   $$$$$$                 ",
"    @  @@@@@@    .......   $$$$$                  ",
"    @@@ @@@      .....     $$$$$                  ",
"    @@@ @@@      .....     $$$$$                  ",
"    @@@@@@@      .....     $$$$$                  ",
"    @@@@@@       .....     $$$$$$                 ",
"    @@@@@@       .....     $$$$$$                 ",
"     @@@@@       .....                            ",
"                                                  ",
"                                                  "};
