/* XPM */
static char * closed_xpm[] = {
"50 50 8 1",
" 	c #72751B",
".	c #E17B50",
"+	c #A84111",
"@	c #211D1D",
"#	c #70162B",
"$	c #FAFA82",
"%	c #787B21",
"&	c #656C17",
"               ....................               ",
"           ...........................            ",
"           ...........................            ",
"          ........++++++++++++++.........         ",
"        .......++++++++++++++++++++.......        ",
"        .......++++++++++++++++++++.......        ",
"        .......++++++++++++++++++++.......        ",
"       ....+++++++++++++++++++++++++++.....       ",
"      ....++++++++++@@@@@@@@@@+++++++++++...      ",
"      ....++++++++++@@@@@@@@@@+++++++++++...      ",
"   .....+++++++++@@@@@@@@@@@@@@@@@++++++++.....   ",
"   ....++++++++@@@@@++++++++++@@@@@++++++++....   ",
"   ....++++++++@@@@@++++++++++@@@@@++++++++....   ",
"  ....++++++++@@@+##++++++++++++++@@++++++++..... ",
"  ....++++++++@@@+##++++++++++++++@@++++++++..... ",
"  .++++++++@@@@+++##+++++++++++++++@@@+++++++++.. ",
"  .++++++++@@@@+++##+++++++++++++++@@@+++++++++.. ",
"  .+++++++@@@@++++##++++++++++++++++@@@@@++++++.. ",
"..++++++@@@+++++++++++++++++++##++++++@@@@+++++++ ",
"..++++++@@@+++++++++++++++++++##++++++@@@@+++++++ ",
"..++++++@@@+++++++++++++++++++##++++++@@@@+++++++ ",
"..+++++@@@++++++++++++++++++++##+++++++++@@++++++ ",
"..+++++@@@++++++++++++++++++++##+++++++++@@++++++ ",
"..+++++@@@++++++++++++++++++++##+++++++++@@++++++ ",
"..+++++@@@++++++++++++++++++++##+++++++++@@++++++ ",
"..+++++@@@++++++++##++++++++++##+++++++++@@++++++ ",
"+++++++@@@++++++++##+++++++++++++++++++++@@++++++ ",
"+++++++@@@++++++++##+++++++++++++++++++++@@++++++ ",
"+++++++@@@++++++++##++++++++++++++$$+++++@@++++++ ",
"+++++++@@@++++++++##++++++++++++++$$+++++@@++++++ ",
"+++++++@@@++++++++##++++++++++++$$$$$$+++@@++++++ ",
"+++++++@@@++++++++##++++++++++++$$$$$$+++@@++++++ ",
"+++++++@@@++++++++##++++++++++++$$$$$$+++@@++++++ ",
"+++++++@@@++++++++++++++++++++++##$$##+++@@++++++ ",
"+++++++@@@++++++++++++++++++++++++##+++++@@++++++ ",
"+++++++@@@++++++++++++++++++++++++##+++++@@++++++ ",
"+++++++@@@++++++++++++++++++++++++##+++++@@++++++%",
"+++++++@@@+++++++++++++++++++++++++++++++@@++++++%",
"+++++++@@@++++++++++++++++++++##+++++++++@@++++++&",
"+++++++@@@++++++++++++++++++++##+++++++++@@++++++ ",
"+++++++@@@++++++++##++++++++++##+++++++++@@++++++ ",
"+++++++@@@++++++++##++++++++++##+++++++++@@++++++ ",
"+++++++@@@++++++++##++++++++++##+++++++++@@++++++ ",
"+++++++@@@++++++++##++++++++++##+++++++++@@++++++ ",
"+++++++@@@++++++++##++++++++++##+++++++++@@++++++ ",
"+++++++@@@++++++++##+++++++++++++++++++++@@++++++ ",
"+++++++@@@++++++++##+++++++++++++++++++++@@++++++ ",
"+++++++@@@++++++++##+++++++++++++++++++++@@++++++ ",
"+++++++@@@++++++++##++++++++++##+++++++++@@++++++ ",
"+++++++@@@                               @@++++++ "};
