/* XPM */
static char * colection2_xpm[] = {
"50 50 8 1",
" 	c #72751B",
".	c #7F8226",
"+	c #787B21",
"@	c #656C17",
"#	c #FAE898",
"$	c #A84111",
"%	c #748F93",
"&	c #323C39",
"                              .                   ",
"                              ++                  ",
"                          ..+ @+                  ",
"                           .++@@ ..+              ",
"          #######################$$               ",
"          #######################$$               ",
"          #######################$$               ",
"       ########################$$$$$$$            ",
"       ########################$$$$$$$            ",
"       ########################$$$$$$$            ",
"       ########################$$$$$$$            ",
"       ########################$$$$$$$            ",
"          #######################$$$$$            ",
"          #######################$$$$$            ",
"              $$$$$$$$$$$$$$$$$$$$$###            ",
"              $$$$$$$$$$$$$$$$$$$$$###            ",
"              $$$$$$$$$$$$$$$$$$$$$###            ",
"              ########################            ",
"              ########################            ",
"              ##%%%%%%%%##&&&&&&&#####            ",
"              ##%%%%%%%%##&&&&&&&#####            ",
"              ########################            ",
"              ########################            ",
"              ##&&&&&&&&%%###%%%%#####            ",
"              ##&&&&&&&&%%###%%%%#####            ",
"              ##&&&&&&&&%%###%%%%#####            ",
"              ########################            ",
"              ########################            ",
"              ##%%%%%&&&&&%%%##%%#####            ",
"              ##%%%%%&&&&&%%%##%%#####            ",
"              ##%%%%%&&&&&%%%##%%#####            ",
"              ########################            ",
"              ##%%%%%###&&&&&&&&&#####            ",
"              ##%%%%%###&&&&&&&&&#####         .  ",
"              ##%%%%%###&&&&&&&&&#####    ..+  ++ ",
"              ##%%%%%###&&&&&&&&&#####     .++ @+ ",
"              ########################$$$$ @+++@ +",
" .            ##&&&&&%%%##%%%&&&&#####$$$$$$@++  +",
" ++           ##&&&&&%%%##%%%&&&&#####$$$$$$+@+  @",
" @+  .        ##&&&&&%%%##%%%&&&&#####$$$$$$+@@   ",
"+@ ++@        ########################$$$$$$      ",
"+  ++@        ########################$$$$$$      ",
"+  @@           ########################$$        ",
"@               ########################$$        ",
"                ########################$$        ",
"                                                  ",
"                                                  ",
"                                                  ",
"                                                  ",
"                                                  "};
