/* XPM */
static char * Persona2_xpm[] = {
"50 50 20 1",
" 	c #72751B",
".	c #7F8226",
"+	c #787B21",
"@	c #656C17",
"#	c #C7CFDD",
"$	c #92A1B9",
"%	c #100515",
"&	c #E69C69",
"*	c #F6CA9F",
"=	c #131313",
"-	c #571C27",
";	c #1A1932",
">	c #FFFFFF",
",	c #B4B4B4",
"'	c #424C6E",
")	c #858585",
"!	c #2A2F4E",
"~	c #5D2C28",
"{	c #391F21",
"]	c #0E071B",
"                              .                   ",
"                              ++                  ",
"                          ..+ @+                  ",
"                           .++@@ ..+              ",
"                        +. @++ @++.               ",
"                         .++@+ +++                ",
"                         @++ @@++@                ",
"                          @+  @@@                 ",
"                           @ ++                   ",
"                             .@                   ",
"                             @                    ",
"                                                  ",
"                        ###$%$$$##                ",
"                        $$$%$$$#####              ",
"                           $$$$&&&&& #            ",
"                           $$$$&&&&& #            ",
"                      #####$$&&$#*$$#             ",
"                   ####$$$$$&&&==*==              ",
"                 #####$   $$$&&&&*&&              ",
"                #####$     $$##&####              ",
"                #####$     $$##&####              ",
"           -    ###$$;>>>>,,$$$#$$$$#             ",
"           -- ####$>>>>>>>>,,$$$$###$             ",
"           -- ###$>>>>>,,,>,'  $$$##$             ",
"            --$$$>>>>,,),,,'    $$$$$             ",
"            --$$$>>>>,,),,,'    $$$$$             ",
"            ----$>>,,)),,,'!     $$$              ",
"             ---- ~{{),,''!                       ",
"             -----~{{))'!!;                       ",
"              ----*&&&'!!!;;;                     ",
"              ----*&&&'!!!;;;                     ",
"                --*$$$$!!!;;;;;;                  ",
"       {{       !-*$$]]'''!;;;;;;                 ",
"    {{{~{{{   !!!!*$$]]'''!;;;;;;;             .  ",
"   {~~~~~{{{ !!!!!!!!!''''!;;;;;;;;;      ..+  ++ ",
"   {~~~~~{{{ !!!!!!!!!''''!;;;;;;;;;       .++ @+ ",
"        ~~~{{!!!!!!!!'''!!;;;;;;;;{{       @+++@ +",
" .       ~~~{!!!!!!'''''  ;;;;;;;{{{{    {.+@++  +",
" ++        ~{!!!!!'''''      ;;;;{{{{{{{{{@++@+  @",
" @+  .      {!!!!''''             {{{{{{{  @+@@   ",
"+@ ++@      {!!!!''''             {{{{{{{         ",
"+  ++@       !!!''                  {{{           ",
"+  @@                                             ",
"@                                                 ",
"                                                  ",
"                                                  ",
"                                                  ",
"                                                  ",
"                                                  ",
"                                                  "};
