/* XPM */
static char * BackGround2_xpm[] = {
"80 80 2 1",
" 	c #999F8E",
".	c #3B6983",
"                                         ..                                     ",
"                                         ..                                     ",
"                                                                                ",
"                                                                                ",
"                                                                                ",
"                                                                                ",
"                                                                                ",
"                                                                                ",
"                                                                                ",
"                                                                                ",
"                                                                                ",
"                                                                                ",
"                                                                                ",
"                                                                                ",
"                                                                                ",
"                                                                                ",
"                                                                                ",
"                                                                                ",
"                                                                                ",
"                                                                                ",
"                                                                                ",
"                                                                                ",
"                                                                                ",
"                                                                                ",
"                                                                                ",
"                                                                                ",
"                                         ..                                     ",
"                                         ..                                     ",
"                                         ..                                     ",
"                                         ..                                     ",
"                                         ..                                     ",
"                                         ..                                     ",
"                                         ..                                     ",
"                                         ..                                     ",
"                                         ..                                     ",
"                                         ..                                     ",
"                                         ..                                     ",
"                 .............        .............         ...............     ",
"                 .............        .............         ...............     ",
"                 .............        .............         ...............     ",
"                 ...                                             ..             ",
"                 ...                                             ..             ",
"                 ...                                             ..             ",
"                 ...                                             ..             ",
"                 ...                                             ..             ",
"                 ...                                             ..             ",
"                 ...                                             ..             ",
"                 ...                                             ..             ",
"                 ...                                             ..             ",
"                 ...                                             ..             ",
"                                                                 ..             ",
"                                                                 ..             ",
"                                                                 ..             ",
"                                                                 ..             ",
"                                                                 ..             ",
"                                                                 ..             ",
"                                                                 ..             ",
"                                                                 ..             ",
"                                                                 ..             ",
"                                                                 ..             ",
"                                                                 ..             ",
"                                                                 ..             ",
"                                                                 ..             ",
"                                                                 ..             ",
"                                                                 ..             ",
"                                                                 ..             ",
"                                                                 ..             ",
"                 ...                                             ..             ",
"                 ...                                             ..             ",
"                 ...                                             ..             ",
"                 ...                                             ..             ",
"                 ...                                             ..             ",
"                 ...                                             ..             ",
"                 ...                                             ..             ",
"                 ...                                             ..             ",
"                 ...                                             ..             ",
"                 ...                                             ..             ",
"                 ...                                             ..             ",
"                 ...                                             ..             ",
"                 ...                                             ..             "};
