/* XPM */
static char * muro1_xpm[] = {
"80 80 8 1",
" 	c None",
".	c #999F8E",
"+	c #696A6A",
"@	c #D3D9B2",
"#	c #211D1D",
"$	c #5A5875",
"%	c #8D768A",
"&	c #0C1317",
"..+++@@@@@..++++++++++....++++++..@@@@....##++++@@@@@@..++++++++++++++++........",
"..+++@@@@@..++++++++++....++++++..@@@@....##++++@@@@@@..++++++++++++++++........",
"..@@@@@@@@@@..++++++..........++@@@@@@@@@@..##@@@@@@@@@@..++...@@@@@..++........",
"..@@@@@@@@@@..++++++..........++@@@@@@@@@@..##@@@@@@@@@@..++...@@@@@..++........",
"..@@@@@@@@@@..++++++..........++@@@@@@@@@@..##@@@@@@@@@@..++...@@@@@..++........",
"..@@@@@@@@@@.....+++............@@@@@@@@@@....@@@@@@@@@@....@@@@@@@@@@..........",
"..@@@@@@@@@@.....+++............@@@@@@@@@@....@@@@@@@@@@....@@@@@@@@@@..........",
"..@@@@@@@@@@.....+++............@@@@@@@@@@....@@@@@@@@@@....@@@@@@@@@@..........",
".....@@@@@.......+++##....++++++..@@@@....++....@@@@@@......@@@@@@@@@@..+++.....",
".....@@@@@.......+++##....++++++..@@@@....++....@@@@@@......@@@@@@@@@@..+++.....",
"+++++.........+++###@@@@@@....++++....++++++++..........##.....@@@@@..++++++++++",
"+++++.........+++###@@@@@@....++++....++++++++..........##.....@@@@@..++++++++++",
"+++++.........###@@@@@@@@@@@@@..++++++......++++......++##..........++++++++++++",
"+++++.........###@@@@@@@@@@@@@..++++++......++++......++##..........++++++++++++",
"+++++@@@@@@@++###@@@@@@@@@@@@@....++@@@@@@....++++++++++##++......++++@@...+++++",
"+++++@@@@@@@++###@@@@@@@@@@@@@....++@@@@@@....++++++++++##++......++++@@...+++++",
"+++++@@@@@@@++###@@@@@@@@@@@@@....++@@@@@@....++++++++++##++......++++@@...+++++",
"++@@@@@@@@@@@@###...@@@@@@........@@@@@@@@@@..++++........##++++++..@@@@@@@...++",
"++@@@@@@@@@@@@###...@@@@@@........@@@@@@@@@@..++++........##++++++..@@@@@@@...++",
"++@@@@@@@@@@@@###...@@@@@@........@@@@@@@@@@..++++........##++++++..@@@@@@@...++",
"++@@@@@@@@@@@@...###..............@@@@@@@@@@..##..@@@@@@....###...@@@@@@@@@...++",
"++@@@@@@@@@@@@...###..............@@@@@@@@@@..##..@@@@@@....###...@@@@@@@@@...++",
"++...@@@@@@@.....#####........++++..@@@@@@....##..@@@@@@....###...@@@@@@@@@...++",
"++...@@@@@@@.....#####........++++..@@@@@@....##..@@@@@@....###...@@@@@@@@@...++",
"++............###+++@@@@......++++++........##++++..................@@@@......##",
"++............###+++@@@@......++++++........##++++..................@@@@......##",
"++............###+++@@@@......++++++........##++++..................@@@@......##",
"+++++.......##+++...@@@@........++++##########++++++++.....................###++",
"+++++.......##+++...@@@@........++++##########++++++++.....................###++",
"++++++++......+++...............++++++........##++++++@@@@.....+++++++#####+++++",
"++++++++......+++...............++++++........##++++++@@@@.....+++++++#####+++++",
"++++++++......+++...............++++++........##++++++@@@@.....+++++++#####+++++",
"+++++...@@@@..++++++..............++..@@@@@@....##@@@@@@@@@@......++##@@@@@+++++",
"+++++...@@@@..++++++..............++..@@@@@@....##@@@@@@@@@@......++##@@@@@+++++",
"++...@@@@@@@..++++++++....++++......@@@@@@@@@@....@@@@@@@@@@......##@@@@@@@@@@++",
"++...@@@@@@@..++++++++....++++......@@@@@@@@@@....@@@@@@@@@@......##@@@@@@@@@@++",
"++......@@.......+++++########++....@@@@@@@@@@........@@@@.....###..@@@@@@@@@@..",
"++......@@.......+++++########++....@@@@@@@@@@........@@@@.....###..@@@@@@@@@@..",
"++......@@.......+++++########++....@@@@@@@@@@........@@@@.....###..@@@@@@@@@@..",
"++...............+++++........##++....@@@@@@......++++.........###..............",
"++...............+++++........##++....@@@@@@......++++.........###..............",
"..$$$.......$$$$$$$$$$..........####$$....##..##..####....$$$$$   ##$$$$......$$",
"..$$$.......$$$$$$$$$$..........####$$....##..##..####....$$$$$   ##$$$$......$$",
"..$$$.......$$$$$$$$$$..........####$$....##..##..####....$$$$$   ##$$$$......$$",
"++###$$$$$####$$$$$$$$$$......$$####$$######$$########$$$$########$$####$$$$$$##",
"++###$$$$$####$$$$$$$$$$......$$####$$######$$########$$$$########$$####$$$$$$##",
"..######$$####$$$###$$$$$$$$$$$$$$####$$$$$$####$$######$$########$$####%%%#####",
"..######$$####$$$###$$$$$$$$$$$$$$####$$$$$$####$$######$$########$$####%%%#####",
"..######$$####$$$###$$$$$$$$$$$$$$####$$$$$$####$$######$$########$$####%%%#####",
"@@$$$#####$$$$########$$$$$$$$$$$$########$$$$$$######$$$$$$$$$#####$$%%######$$",
"@@$$$#####$$$$########$$$$$$$$$$$$########$$$$$$######$$$$$$$$$#####$$%%######$$",
"@@###$$$$$$$########$$####$$$$$$######$$$$##$$##########$$##%%%#######$$$$$$$$##",
"@@###$$$$$$$########$$####$$$$$$######$$$$##$$##########$$##%%%#######$$$$$$$$##",
"@@######$$##$$######$$####$$$$############$$$$$$########$$%%####################",
"@@######$$##$$######$$####$$$$############$$$$$$########$$%%####################",
"@@######$$##$$######$$####$$$$############$$$$$$########$$%%####################",
"..###%%%%%%%##########$$$$############$$$$$$##########$$%%%%%%%#####$$$$########",
"..###%%%%%%%##########$$$$############$$$$$$##########$$%%%%%%%#####$$$$########",
"##$$$%%%%%$$$$######$$$$$$$$$$$$####%%%%%%$$$$####$$$$$$$$%%$$$###$$$$$$$$$#####",
"##$$$%%%%%$$$$######$$$$$$$$$$$$####%%%%%%$$$$####$$$$$$$$%%$$$###$$$$$$$$$#####",
"##$$$%%%%%$$$$######$$$$$$$$$$$$####%%%%%%$$$$####$$$$$$$$%%$$$###$$$$$$$$$#####",
"..###$$$$$####$$$#####$$$$####$$$$##$$$$$$####$$##$$$$####$$$$$$$$$$$$$$$$$#####",
"..###$$$$$####$$$#####$$$$####$$$$##$$$$$$####$$##$$$$####$$$$$$$$$$$$$$$$$#####",
"..######$$####$$$#####$$%%######$$####$$$$####$$##$$$$####$$######$$$$#####$$$##",
"..######$$####$$$#####$$%%######$$####$$$$####$$##$$$$####$$######$$$$#####$$$##",
"..$$$#####$$$$######$$####%%%%$$##########$$$$########$$$$#####$$$##$$#####$$$##",
"..$$$#####$$$$######$$####%%%%$$##########$$$$########$$$$#####$$$##$$#####$$$##",
"..$$$#####$$$$######$$####%%%%$$##########$$$$########$$$$#####$$$##$$#####$$$##",
"++###$$$$$$$##########$$$$$$$$######$$$$$$$$############$$$$$$$#######$$$$$#####",
"++###$$$$$$$##########$$$$$$$$######$$$$$$$$############$$$$$$$#######$$$$$#####",
"++###$$$$$$$##########$$$$$$$$######$$$$$$$$############$$$$$$$#######$$$$$#####",
"########$$##$$################$$######$$$$##$$########$$##$$######$$$$$$########",
"########$$##$$################$$######$$$$##$$########$$##$$######$$$$$$########",
"..######$$$$############$$$$$$########$$$$$$############$$$$########$$##$$$#####",
"..######$$$$############$$$$$$########$$$$$$############$$$$########$$##$$$#####",
"..##############################################################################",
"..##############################################################################",
"&&&&&&&&&&&&&&&&&&&&&&&&&&&&&&&&&&&&&&&&&&&&&&&&&&&&&&&&&&&&&&&&&&&&&&&&&&&&&&&&",
"&&&&&&&&&&&&&&&&&&&&&&&&&&&&&&&&&&&&&&&&&&&&&&&&&&&&&&&&&&&&&&&&&&&&&&&&&&&&&&&&",
"&&&&&&&&&&&&&&&&&&&&&&&&&&&&&&&&&&&&&&&&&&&&&&&&&&&&&&&&&&&&&&&&&&&&&&&&&&&&&&&&"};
