/* XPM */
static char * muro_xpm[] = {
"80 80 7 1",
" 	c None",
".	c #6F5756",
"+	c #0C1317",
"@	c #211D1D",
"#	c #1F324D",
"$	c #5A5875",
"%	c #8294AF",
"                                                                                ",
"..++@@@@@@..............@@@@@@@@@@@@................@@@@@@@@@@...............@@@",
"############$$$$$$$$$$$$$$$$$$$$$$$$$$%%%%%%$$################$$$$$$$$$$$$######",
"############$$$$$$$$$$$$$$$$$$$$$$$$$$%%%%%%$$################$$$$$$$$$$$$######",
"############$$$$$$$$$$$$$$$$$$$$$$$$$$%%%%%%$$################$$$$$$$$$$$$######",
"$$#####$$$$$$$%%%%%%%%%%%%%%%%%%%%$$%%%%%%%%%%$$%%%%%%%%%%%%%%$$$$$$$$$$%%%%%%%%",
"$$#####$$$$$$$%%%%%%%%%%%%%%%%%%%%$$%%%%%%%%%%$$%%%%%%%%%%%%%%$$$$$$$$$$%%%%%%%%",
"%%$$###$$$$$%%%%%%%%%%%%%%%%%%%%%%%%$$%%%%%%$$%%%%%%%%%%%%%%%%%%%%%%%%$$$$$$$%%%",
"%%$$###$$$$$%%%%%%%%%%%%%%%%%%%%%%%%$$%%%%%%$$%%%%%%%%%%%%%%%%%%%%%%%%$$$$$$$%%%",
"%%$$###$$$$$%%%%%%%%%%%%%%%%%%%%%%%%$$%%%%%%$$%%%%%%%%%%%%%%%%%%%%%%%%$$$$$$$%%%",
"%%%%###$$$$$%%%%%%%%%%%%%%%%%%%%%%%%%%$$####%%%%%%%%%%%%%%%%%%%%%%%%%%%%##$$$%%%",
"%%%%###$$$$$%%%%%%%%%%%%%%%%%%%%%%%%%%$$####%%%%%%%%%%%%%%%%%%%%%%%%%%%%##$$$%%%",
"%%%%$$$$$$%%%%%%%%%%%%%%%%%%%%%%%%%%%%%%####%%%%%%%%%%%%%%%%%%%%%%%%%%%%##%%%%%%",
"%%%%$$$$$$%%%%%%%%%%%%%%%%%%%%%%%%%%%%%%####%%%%%%%%%%%%%%%%%%%%%%%%%%%%##%%%%%%",
"%%%%$$$%%%%%%%%%%%%%%%%%%%%%%%%%%%%%%%%%$$$$%%%%%%%%%%%%%%%%%%%%%%%%%%$$%%%%%%%%",
"%%%%$$$%%%%%%%%%%%%%%%%%%%%%%%%%%%%%%%%%$$$$%%%%%%%%%%%%%%%%%%%%%%%%%%$$%%%%%%%%",
"%%%%$$$%%%%%%%%%%%%%%%%%%%%%%%%%%%%%%%%%$$$$%%%%%%%%%%%%%%%%%%%%%%%%%%$$%%%%%%%%",
"%%%%$$$%%%%%%%%%%%%%%%%%%%%%%%%%%%%%%%%%$$$$%%%%%%%%%%%%%%%%%%%%%%%%##$$%%%%%%%%",
"%%%%$$$%%%%%%%%%%%%%%%%%%%%%%%%%%%%%%%%%$$$$%%%%%%%%%%%%%%%%%%%%%%%%##$$%%%%%%%%",
"%%%%$$$%%%%%%%%%%%%%%%%%%%%%%%%%%%%%%%%%$$$$%%%%%%%%%%%%%%%%%%%%%%%%##$$%%%%%%%%",
"%%%%$$$%%%%%%%%%%%%%%%%%%%%%%%%%%%%%%%%%$$$$$$%%%%%%%%%%%%%%%%%%%###$$$$%%%%%%%%",
"%%%%$$$%%%%%%%%%%%%%%%%%%%%%%%%%%%%%%%%%$$$$$$%%%%%%%%%%%%%%%%%%%###$$$$%%%%%%%%",
"%%$$$$$$$$%%%%%%%%%%%%%%%%%%%%%%%%%%%%%%$$$$$$$$%%%%%%%%%%%%%%###%%%%%%%##%%%%%%",
"%%$$$$$$$$%%%%%%%%%%%%%%%%%%%%%%%%%%%%%%$$$$$$$$%%%%%%%%%%%%%%###%%%%%%%##%%%%%%",
"$$$$$$$$$$$$$$%%%%%%%%%%%%%%%%%%%%%%%%%%$$$$$$$$$$%%%%%%%%%%##%%%%%%%%%%%%###$$$",
"$$$$$$$$$$$$$$%%%%%%%%%%%%%%%%%%%%%%%%%%$$$$$$$$$$%%%%%%%%%%##%%%%%%%%%%%%###$$$",
"$$##$$$$$$$$##$$%%%%%%%%%%%%%%%%%%%%%%%%####%%%%%%%%$$$$$$$$%%%%%%%%%%%%%%%%%###",
"$$##$$$$$$$$##$$%%%%%%%%%%%%%%%%%%%%%%%%####%%%%%%%%$$$$$$$$%%%%%%%%%%%%%%%%%###",
"$$##$$$$$$$$##$$%%%%%%%%%%%%%%%%%%%%%%%%####%%%%%%%%$$$$$$$$%%%%%%%%%%%%%%%%%###",
"%%##$$$%%%%%$$##$$$%%%%%%%%%%%%%%%%%%%##%%%%%%%%%%%%%%%%$$%%%%%%%%%%%%%%%%%%%%%%",
"%%##$$$%%%%%$$##$$$%%%%%%%%%%%%%%%%%%%##%%%%%%%%%%%%%%%%$$%%%%%%%%%%%%%%%%%%%%%%",
"%%##$$$%%%%%$$##$$$%%%%%%%%%%%%%%%%%%%##%%%%%%%%%%%%%%%%$$%%%%%%%%%%%%%%%%%%%%%%",
"%%##%%%%%%%%%%$$###$$$$$$$$$$$$$$$$$##%%%%%%%%%%%%%%%%%%%%%%%%%%%%%%%%%%%%%%%%%%",
"%%##%%%%%%%%%%$$###$$$$$$$$$$$$$$$$$##%%%%%%%%%%%%%%%%%%%%%%%%%%%%%%%%%%%%%%%%%%",
"%%%%%%%%%%%%%%%%$$$$$$$$%%%%%%%%%%$$$$%%%%%%%%%%%%%%%%%%%%%%%%%%%%%%%%%%%%%%%%%%",
"%%%%%%%%%%%%%%%%$$$$$$$$%%%%%%%%%%$$$$%%%%%%%%%%%%%%%%%%%%%%%%%%%%%%%%%%%%%%%%%%",
"%%%%$$$%%%%%%%%%$$$$$$$$%%%%%%%%%%%%$$$$%%%%%%%%%%%%%%%%%%$$%%%%%%%%%%%%%%%%%%%%",
"%%%%$$$%%%%%%%%%$$$$$$$$%%%%%%%%%%%%$$$$%%%%%%%%%%%%%%%%%%$$%%%%%%%%%%%%%%%%%%%%",
"%%%%###$$$%%%%$$$$$$$$%%%%%%%%%%%%%%%%$$$$$$%%%%%%%%%%%%$$##$$%%%%%%%%%%%%%%%%%%",
"%%%%###$$$%%%%$$$$$$$$%%%%%%%%%%%%%%%%$$$$$$%%%%%%%%%%%%$$##$$%%%%%%%%%%%%%%%%%%",
"%%%%###$$$%%%%$$$$$$$$%%%%%%%%%%%%%%%%$$$$$$%%%%%%%%%%%%$$##$$%%%%%%%%%%%%%%%%%%",
"%%%%###$$$%%%%$$$$$$$$%%%%%%%%%%%%%%%%$$$$$$%%%%%%%%%%%%$$##$$%%%%%%%%%%%%%%%%%%",
"%%$$###$$$$$$$$$$$$$$$%%%%%%%%%%%%%%%%##$$$$$$%%%%%%$$$$$$##$$$$$%%%%%%%%%%%%%%%",
"%%$$###$$$$$$$$$$$$$$$%%%%%%%%%%%%%%%%##$$$$$$%%%%%%$$$$$$##$$$$$%%%%%%%%%%%%%%%",
"$$##############$$$$$$$$%%%%%%%%%%%%$$##$$$$$$$$$$$$$$$$$$##$$$$$$$$%%%%%%%%%%%%",
"$$##############$$$$$$$$%%%%%%%%%%%%$$##$$$$$$$$$$$$$$$$$$##$$$$$$$$%%%%%%%%%%%%",
"$$########$$$$$$###$$$$$$$$$$$$$$$$$$$######$$$$$$$$$$$$####$$$$$$$$$$$$$$$$$$$$",
"$$########$$$$$$###$$$$$$$$$$$$$$$$$$$######$$$$$$$$$$$$####$$$$$$$$$$$$$$$$$$$$",
"%%$$###$$$$$$$$$######$$$$$$$$$$$$$$####$$$$$$$$############$$$$$$$$$$$$$$$$$$$$",
"%%$$###$$$$$$$$$######$$$$$$$$$$$$$$####$$$$$$$$############$$$$$$$$$$$$$$$$$$$$",
"%%%%$$$$$$$$$$$$$$$$$$##$$$$$$$$$$$$$$$$$$$$$$######$$$$$$$$#####$$$$$$$$$$$$###",
"%%%%$$$$$$$$$$$$$$$$$$##$$$$$$$$$$$$$$$$$$$$$$######$$$$$$$$#####$$$$$$$$$$$$###",
"%%%%$$$$$$$$$$$$$$$$$$##$$$$$$$$$$$$$$$$$$$$$$######$$$$$$$$#####$$$$$$$$$$$$###",
"%%%%$$$$$$$$$$$$$$$$$$##$$$$$$$$$$$$$$$$$$$$$$######$$$$$$$$#####$$$$$$$$$$$$###",
"%%%%$$$$$$$$$$$$$$$$$$$$##########$$$$$$$$$$$$$$##$$$$$$$$$$$$########$$$$######",
"%%%%$$$$$$$$$$$$$$$$$$$$##########$$$$$$$$$$$$$$##$$$$$$$$$$$$########$$$$######",
"%%$$$$$$$$$$$$$$$$$$$$$$$$$$$$$$$$$$$$$$$$$$$$$$$$$$$$$$$$$$$$$$$###$$$$$$$$$$$$",
"%%$$$$$$$$$$$$$$$$$$$$$$$$$$$$$$$$$$$$$$$$$$$$$$$$$$$$$$$$$$$$$$$###$$$$$$$$$$$$",
"%%$$###$$$$$$$$$$$$$$$$$$$$$$$$$$$$$$$$$$$$$$$$$$$$$$$$$$$$$$$$$$###$$$$$$$$$$$$",
"%%$$###$$$$$$$$$$$$$$$$$$$$$$$$$$$$$$$$$$$$$$$$$$$$$$$$$$$$$$$$$$###$$$$$$$$$$$$",
"%%$$######$$$$$$$$$$$$$$##$$$$$$$$$$$$$$$$$$$$$$$$$$$$$$$$$$$$$$$$$$$$$$$$$$$$$$",
"%%$$######$$$$$$$$$$$$$$##$$$$$$$$$$$$$$$$$$$$$$$$$$$$$$$$$$$$$$$$$$$$$$$$$$$$$$",
"$$##########$$$$$$$#######$$$$$$$$$$$$$$$$$$##$$$$$$$$$$$$$$$$$$$$$$$$$$$$$$$$$$",
"$$##########$$$$$$$#######$$$$$$$$$$$$$$$$$$##$$$$$$$$$$$$$$$$$$$$$$$$$$$$$$$$$$",
"$$##########$$$$$$$#######$$$$$$$$$$$$$$$$$$##$$$$$$$$$$$$$$$$$$$$$$$$$$$$$$$$$$",
"$$##########$$$$$$$#######$$$$$$$$$$$$$$$$$$##$$$$$$$$$$$$$$$$$$$$$$$$$$$$$$$$$$",
"$$#####$$$$$$$$$$$$$$$$$$$$$$$$$$$$$$$$$$$$$##$$$$$$$$$$$$$$$$$$$$$$$$$$$$######",
"$$#####$$$$$$$$$$$$$$$$$$$$$$$$$$$$$$$$$$$$$##$$$$$$$$$$$$$$$$$$$$$$$$$$$$######",
"%%#####$$$$$$$$$$$$$$$$$$$$$$$$$$$$$$$$$########$$$$$$$$$$$$$$$$$$$$$$$$$$$$$$$$",
"%%#####$$$$$$$$$$$$$$$$$$$$$$$$$$$$$$$$$########$$$$$$$$$$$$$$$$$$$$$$$$$$$$$$$$",
"%%$$###$$$$$$$$$$$$$$$$$$$$$$$$$$$####$$$$$$######$$$$$$$$$$$$###$$$$$$$$$$$$$$$",
"%%$$###$$$$$$$$$$$$$$$$$$$$$$$$$$$####$$$$$$######$$$$$$$$$$$$###$$$$$$$$$$$$$$$",
"%%$$###$$$$$$$$$###$$$$$$$$$$$$$$$##$$$$$$$$$$$$$$$$$$$$$$####$$$$$$$$$$$$$$$$$$",
"%%$$###$$$$$$$$$###$$$$$$$$$$$$$$$##$$$$$$$$$$$$$$$$$$$$$$####$$$$$$$$$$$$$$$$$$",
"%%$$###$$$$$$$$$###$$$$$$$$$$$$$$$##$$$$$$$$$$$$$$$$$$$$$$####$$$$$$$$$$$$$$$$$$",
"%%$$$$$$$$$$$$$$###$$$$$$$$$$$$$####$$$$$$$$$$$$$$$$$$$$$$$$##$$$$$$$$$$$$$$$$$$",
"%%$$$$$$$$$$$$$$###$$$$$$$$$$$$$####$$$$$$$$$$$$$$$$$$$$$$$$##$$$$$$$$$$$$$$$$$$",
"%%$$$$$$$$$$$$$$###$$$$$$$$$$$$$####$$$$$$$$$$$$$$$$$$$$$$$$##$$$$$$$$$$$$$$$$$$",
"$$$$######$$$$########$$$$$$##########$$$$$$$$$$$$$$$$$$$$#######$$$$$$$$$$$$$$$",
"$$$$######$$$$########$$$$$$##########$$$$$$$$$$$$$$$$$$$$#######$$$$$$$$$$$$$$$"};
