/* XPM */
static char * closed_xpm[] = {
"80 80 6 1",
" 	c None",
".	c #E17B50",
"+	c #A84111",
"@	c #211D1D",
"#	c #70162B",
"$	c #FAFA82",
"                        ................................                        ",
"                        ................................                        ",
"                  ...........................................                   ",
"                  ...........................................                   ",
"                  ...........................................                   ",
"                .............++++++++++++++++++++++..............               ",
"                .............++++++++++++++++++++++..............               ",
"             ...........++++++++++++++++++++++++++++++++...........             ",
"             ...........++++++++++++++++++++++++++++++++...........             ",
"             ...........++++++++++++++++++++++++++++++++...........             ",
"             ...........++++++++++++++++++++++++++++++++...........             ",
"           .......+++++++++++++++++++++++++++++++++++++++++++........           ",
"           .......+++++++++++++++++++++++++++++++++++++++++++........           ",
"         .......++++++++++++++++@@@@@@@@@@@@@@@@+++++++++++++++++......         ",
"         .......++++++++++++++++@@@@@@@@@@@@@@@@+++++++++++++++++......         ",
"         .......++++++++++++++++@@@@@@@@@@@@@@@@+++++++++++++++++......         ",
"     ........++++++++++++++@@@@@@@@@@@@@@@@@@@@@@@@@@@+++++++++++++.........    ",
"     ........++++++++++++++@@@@@@@@@@@@@@@@@@@@@@@@@@@+++++++++++++.........    ",
"     ......+++++++++++++@@@@@@@@++++++++++++++++@@@@@@@@+++++++++++++.......    ",
"     ......+++++++++++++@@@@@@@@++++++++++++++++@@@@@@@@+++++++++++++.......    ",
"     ......+++++++++++++@@@@@@@@++++++++++++++++@@@@@@@@+++++++++++++.......    ",
"   ......+++++++++++++@@@@@++###++++++++++++++++++++++@@@@+++++++++++++.......  ",
"   ......+++++++++++++@@@@@++###++++++++++++++++++++++@@@@+++++++++++++.......  ",
"   ......+++++++++++++@@@@@++###++++++++++++++++++++++@@@@+++++++++++++.......  ",
"   ..+++++++++++++@@@@@@+++++###++++++++++++++++++++++++@@@@@+++++++++++++++..  ",
"   ..+++++++++++++@@@@@@+++++###++++++++++++++++++++++++@@@@@+++++++++++++++..  ",
"   ..+++++++++++++@@@@@@+++++###++++++++++++++++++++++++@@@@@+++++++++++++++..  ",
"   ..+++++++++++@@@@@@+++++++###++++++++++++++++++++++++++@@@@@@@+++++++++++..  ",
"   ..+++++++++++@@@@@@+++++++###++++++++++++++++++++++++++@@@@@@@+++++++++++..  ",
"...++++++++++@@@@@++++++++++++++++++++++++++++++###++++++++++@@@@@@+++++++++++. ",
"...++++++++++@@@@@++++++++++++++++++++++++++++++###++++++++++@@@@@@+++++++++++. ",
"...++++++++++@@@@@++++++++++++++++++++++++++++++###++++++++++@@@@@@+++++++++++. ",
"...++++++++++@@@@@++++++++++++++++++++++++++++++###++++++++++@@@@@@+++++++++++. ",
"...++++++++++@@@@@++++++++++++++++++++++++++++++###++++++++++@@@@@@+++++++++++. ",
"...++++++++@@@@@++++++++++++++++++++++++++++++++###++++++++++++++@@@@+++++++++. ",
"...++++++++@@@@@++++++++++++++++++++++++++++++++###++++++++++++++@@@@+++++++++. ",
"...++++++++@@@@@++++++++++++++++++++++++++++++++###++++++++++++++@@@@+++++++++. ",
"...++++++++@@@@@++++++++++++++++++++++++++++++++###++++++++++++++@@@@+++++++++. ",
"...++++++++@@@@@++++++++++++++++++++++++++++++++###++++++++++++++@@@@+++++++++. ",
"...++++++++@@@@@++++++++++++++++++++++++++++++++###++++++++++++++@@@@+++++++++. ",
"...++++++++@@@@@+++++++++++++###++++++++++++++++###++++++++++++++@@@@+++++++++. ",
"...++++++++@@@@@+++++++++++++###++++++++++++++++###++++++++++++++@@@@+++++++++. ",
"+++++++++++@@@@@+++++++++++++###+++++++++++++++++++++++++++++++++@@@@++++++++++ ",
"+++++++++++@@@@@+++++++++++++###+++++++++++++++++++++++++++++++++@@@@++++++++++ ",
"+++++++++++@@@@@+++++++++++++###+++++++++++++++++++++++++++++++++@@@@++++++++++ ",
"+++++++++++@@@@@+++++++++++++###++++++++++++++++++++++$$$$+++++++@@@@++++++++++ ",
"+++++++++++@@@@@+++++++++++++###++++++++++++++++++++++$$$$+++++++@@@@++++++++++ ",
"+++++++++++@@@@@+++++++++++++###++++++++++++++++++++++$$$$+++++++@@@@++++++++++ ",
"+++++++++++@@@@@+++++++++++++###+++++++++++++++++++$$$$$$$$$$++++@@@@++++++++++ ",
"+++++++++++@@@@@+++++++++++++###+++++++++++++++++++$$$$$$$$$$++++@@@@++++++++++ ",
"+++++++++++@@@@@+++++++++++++###+++++++++++++++++++$$$$$$$$$$++++@@@@++++++++++ ",
"+++++++++++@@@@@+++++++++++++###+++++++++++++++++++$$$$$$$$$$++++@@@@++++++++++ ",
"+++++++++++@@@@@+++++++++++++###+++++++++++++++++++$$$$$$$$$$++++@@@@++++++++++ ",
"+++++++++++@@@@@+++++++++++++++++++++++++++++++++++###$$$$###++++@@@@++++++++++ ",
"+++++++++++@@@@@+++++++++++++++++++++++++++++++++++###$$$$###++++@@@@++++++++++ ",
"+++++++++++@@@@@++++++++++++++++++++++++++++++++++++++####+++++++@@@@++++++++++ ",
"+++++++++++@@@@@++++++++++++++++++++++++++++++++++++++####+++++++@@@@++++++++++ ",
"+++++++++++@@@@@++++++++++++++++++++++++++++++++++++++####+++++++@@@@++++++++++ ",
"+++++++++++@@@@@++++++++++++++++++++++++++++++++++++++####+++++++@@@@++++++++++ ",
"+++++++++++@@@@@+++++++++++++++++++++++++++++++++++++++++++++++++@@@@++++++++++ ",
"+++++++++++@@@@@+++++++++++++++++++++++++++++++++++++++++++++++++@@@@++++++++++ ",
"+++++++++++@@@@@++++++++++++++++++++++++++++++++###++++++++++++++@@@@++++++++++ ",
"+++++++++++@@@@@++++++++++++++++++++++++++++++++###++++++++++++++@@@@++++++++++ ",
"+++++++++++@@@@@++++++++++++++++++++++++++++++++###++++++++++++++@@@@++++++++++ ",
"+++++++++++@@@@@+++++++++++++###++++++++++++++++###++++++++++++++@@@@++++++++++ ",
"+++++++++++@@@@@+++++++++++++###++++++++++++++++###++++++++++++++@@@@++++++++++ ",
"+++++++++++@@@@@+++++++++++++###++++++++++++++++###++++++++++++++@@@@++++++++++ ",
"+++++++++++@@@@@+++++++++++++###++++++++++++++++###++++++++++++++@@@@++++++++++ ",
"+++++++++++@@@@@+++++++++++++###++++++++++++++++###++++++++++++++@@@@++++++++++ ",
"+++++++++++@@@@@+++++++++++++###++++++++++++++++###++++++++++++++@@@@++++++++++ ",
"+++++++++++@@@@@+++++++++++++###++++++++++++++++###++++++++++++++@@@@++++++++++ ",
"+++++++++++@@@@@+++++++++++++###++++++++++++++++###++++++++++++++@@@@++++++++++ ",
"+++++++++++@@@@@+++++++++++++###+++++++++++++++++++++++++++++++++@@@@++++++++++ ",
"+++++++++++@@@@@+++++++++++++###+++++++++++++++++++++++++++++++++@@@@++++++++++ ",
"+++++++++++@@@@@+++++++++++++###+++++++++++++++++++++++++++++++++@@@@++++++++++ ",
"+++++++++++@@@@@+++++++++++++###+++++++++++++++++++++++++++++++++@@@@++++++++++ ",
"+++++++++++@@@@@+++++++++++++###+++++++++++++++++++++++++++++++++@@@@++++++++++ ",
"+++++++++++@@@@@+++++++++++++###++++++++++++++++###++++++++++++++@@@@++++++++++ ",
"+++++++++++@@@@@+++++++++++++###++++++++++++++++###++++++++++++++@@@@++++++++++ ",
"+++++++++++@@@@@                                                 @@@@++++++++++ "};
