/* XPM */
static char * colection_xpm[] = {
"50 50 9 1",
" 	c None",
".	c #6F5756",
"+	c #FCA89D",
"@	c #8D768A",
"#	c #0C1317",
"$	c #DEF9FC",
"%	c #472138",
"&	c #70162B",
"*	c #E17B50",
"                                                  ",
"                                                  ",
"                                                  ",
"                                                  ",
"                      .......                     ",
"                      .......                     ",
"                   +++.......++                   ",
"                   +++.......++                   ",
"                   +++.......++                   ",
"                   +++++...++++                   ",
"                   +++++...++++                   ",
"                      @@###@@                     ",
"                      @@###@@                     ",
"                      @@###@@                     ",
"                      @@###@@                     ",
"                      @@###@@                     ",
"                   +++++###++@@                   ",
"                   +++++###++@@                   ",
"                 ++############++                 ",
"                 ++############++                 ",
"              +++##$$$%%%%%%%%%##+++              ",
"              +++##$$$%%%%%%%%%##+++              ",
"              +++##$$$%%%%%%%%%##+++              ",
"              +++&&%%%%%%%%%%%%&&***              ",
"              +++&&%%%%%%%%%%%%&&***              ",
"              +++%%&&&&&&&&&&&&%%***              ",
"              +++%%&&&&&&&&&&&&%%***              ",
"                 ++%%%%%%%%%%%%**                 ",
"                 ++%%%%%%%%%%%%**                 ",
"              +++%%%%%%%%%%%%%%%%***              ",
"              +++%%%%%%%%%%%%%%%%***              ",
"              +++%%%%%%%%%%%%%%%%***              ",
"            ++%%%$$$$$%%%%%%%%%%%%%%**            ",
"            ++%%%$$$$$%%%%%%%%%%%%%%**            ",
"            ++%%%$$$$$%%%%%%%%%%%%%%**            ",
"            ++%%%$$$$$%%%%%%%%%%%%%%**            ",
"            ++%%%$$$$$%%%%%%%%%%%%%%**            ",
"            ++%%%%%%%%%%%%%%%%%%%%%%++            ",
"            ++%%%%%%%%%%%%%%%%%%%%%%++            ",
"              +++%%%%%%%%%%%%%%%%***              ",
"              +++%%%%%%%%%%%%%%%%***              ",
"              +++%%%%%%%%%%%%%%%%***              ",
"                 ++++++++++******                 ",
"                 ++++++++++******                 ",
"                                                  ",
"                                                  ",
"                                                  ",
"                                                  ",
"                                                  ",
"                                                  "};
