/* XPM */
static char * enemy_xpm[] = {
"50 50 9 1",
" 	c #72751B",
".	c #7F8226",
"+	c #5A5875",
"@	c #787B21",
"#	c #656C17",
"$	c #8D768A",
"%	c #00EDFF",
"&	c #0C1317",
"*	c #31314B",
"                              .                   ",
"                        ++ ++ @@                  ",
"                        ++.++ #@                  ",
"                     +  ++ ++@$$ ..@              ",
"                     +$$+++$$+$$@@.               ",
"                     +$$+++$$+$$@@                ",
"                     +$$+++$$+++@#                ",
"                     +++++++++++#                 ",
"                     +++++++++++                  ",
"                     +%%++%%%+++                  ",
"                     +%%++%%%+++                  ",
"                   $$+++&&++++++$                 ",
"           ++   +++$$+&&&&&+++++$+++   ++         ",
"           ++   +++$$+&&&&&+++++$+++   ++         ",
"           ++++++++$$+&&&&&+++&&$++++++++         ",
"           ++++++++$$+&&&&&+++&&$++++++++         ",
"           ++++++++$$+&&&&&++&++*$$++++++         ",
"           $$++++++++&&&&&&&&++++**++++$$         ",
"           $$++++++++&&&&&&&&++++**++++$$         ",
"             $+++++++*+++++++++++**++++$$         ",
"           ***$$$$$**++++++$$++++++*$$$***$$      ",
"           ***$$$$$**++++++$$++++++*$$$***$$      ",
"           ********++++++++$$++++*****&&&&&&$$    ",
"           ******  ++++++++$$++++*****+&&&&&&&$   ",
"           ******  ++++++++$$++++*****+&&&&&&&$   ",
"          +++****  ++++++++$$++++***+++++*&&&&&$$ ",
"        ++++++**   ++++++++++++++**++++**+&&&&&$$ ",
"        ++++++**   ++++++++++++++**++++**+&&&&&$$ ",
"        ++++++++   $$+++++++++++$&&+++*+++++&&&$$ ",
"          ++++%% ++++$$$$$$$$$$$+&&&&&*+++++&&&$$ ",
"          ++++%% ++++$$$$$$$$$$$+&&&&&*+++++&&&$$ ",
"          +%%+++ +++++++$$$$$$+++&&&**++++++&&&++ ",
"          +%%%++ +++++**++++++**+&&&&&&+++&&&&&++ ",
"          +%%%++ +++++**++++++**+&&&&&&+++&&&&&++ ",
"          %%%+   ++++*++**++++**+&&&&&&&&&&&&&*@@ ",
"          %%%+   ++++*++**++++**+&&&&&&&&&&&&&*#@ ",
"       %  %%%    ****+++**++++***  &&&&&&&&&**@# @",
" .      %%%%%    +++++++  +++****   &&&&&&**#@@  @",
" @@     %%%%%    +++++++  +++****   &&&&&&**@#@  #",
" #@  . %%%%%%    +++++++   ******          #@##   ",
"@# @@# %%%%%%    +++++++   ******                 ",
"@  @%# %%%%%%    +++++++   *****                  ",
"@  #%%% %%%      +++++     *****                  ",
"#   %%% %%%      +++++     *****                  ",
"    %%%%%%%      +++++     *****                  ",
"    %%%%%%       +++++     ******                 ",
"    %%%%%%       +++++     ******                 ",
"     %%%%%       +++++                            ",
"                                                  ",
"                                                  "};
