/* XPM */
static char * mago_xpm[] = {
"50 50 16 1",
" 	c #72751B",
".	c #7F8226",
"+	c #787B21",
"@	c #656C17",
"#	c #4C63E0",
"$	c #A84111",
"%	c #748F93",
"&	c #3494CB",
"*	c #1E1B80",
"=	c #FCA89D",
"-	c #000000",
";	c #DEF9FC",
">	c #12274D",
",	c #FF4D00",
"'	c #FAFA82",
")	c #453625",
"                              .                   ",
"                              ++                  ",
"                          ..+ @+                  ",
"                           .++@@ ..+              ",
"                        #########+.               ",
"                        #########+                ",
"                      ########@++@                ",
"                     #########@@@      $$$        ",
"                 %%%%%%%%%%%%#+       $$$$$$      ",
"                &************%%       $$$$        ",
"                &************%%       $$$$        ",
"                ***=======*****&&     $$$$$$      ",
"                 **--===--=****&&     $$$$        ",
"                 **--===--=****&&     $$$$        ",
"                  *========**         $$$$        ",
"                ; ;;;===;;;**;         $$         ",
"       &&&&   ;;;;;;;;;;;;;;;;;        $$         ",
"      &;;>>&    ;;;;;;;;;;;;;;         $$         ",
"      &;;>>&    ;;;;;;;;;;;;;;         $$         ",
"      &>>>>&    #;;;;;;;;;;;;;;##    = $$=        ",
"      &==>>&  ;;;;;;;;;;;;;;;;;;;#  ##====        ",
"      ===>=&  ##;;;;;;;;;;;;;##**####*===*##      ",
"      ===>=&  ##;;;;;;;;;;;;;##**####*===*##      ",
"       =====#####;;##;;;;##;;;*######*===*##      ",
"       ##***#####*####;;#####*#######**$$*##      ",
"       ##***#####*####;;#####*#######**$$*##      ",
"       ##***######***####****#########*$$*##      ",
"       ##**####################  ######$$#        ",
"         ####### ##############  ######$$         ",
"           ###   ,############,   #### $$         ",
"           ###   ,############,   #### $$         ",
"                 #,,,,,,,,''',#     #  $$         ",
"                 #########'''##        $$         ",
"                 #########'''##        $$      .  ",
"                #########,#,,####      $$ ..+  ++ ",
"                #########,#,,####      $$  .++ @+ ",
"                #########,#,,####      $$  @+++@ +",
" .              #################      $$ .+@++  +",
" ++             #################      $$ @++@+  @",
" @+  .          #################      $$  @+@@   ",
"+@ ++@            )##############      $$         ",
"+  ++@            )##############      $$         ",
"+  @@            )))))  #######                   ",
"@                         ))))                    ",
"                                                  ",
"                                                  ",
"                                                  ",
"                                                  ",
"                                                  ",
"                                                  "};
