/* XPM */
static char * muro_xpm[] = {
"50 50 4 1",
" 	c None",
".	c #1F324D",
"+	c #5A5875",
"@	c #8294AF",
"                                                  ",
".......+++++++++++++++++@@@++..........+++++++....",
".......+++++++++++++++++@@@++..........+++++++....",
"+...+++++@@@@@@@@@@@@+@@@@@@@+@@@@@@@@@++++++@@@@@",
"@+..+++@@@@@@@@@@@@@@@++@@@++@@@@@@@@@@@@@@@++++@@",
"@+..+++@@@@@@@@@@@@@@@++@@@++@@@@@@@@@@@@@@@++++@@",
"@@..+++@@@@@@@@@@@@@@@@@+..@@@@@@@@@@@@@@@@@@.++@@",
"@@++++@@@@@@@@@@@@@@@@@@@..@@@@@@@@@@@@@@@@@@.@@@@",
"@@++++@@@@@@@@@@@@@@@@@@@..@@@@@@@@@@@@@@@@@@.@@@@",
"@@++@@@@@@@@@@@@@@@@@@@@@++@@@@@@@@@@@@@@@@@+@@@@@",
"@@++@@@@@@@@@@@@@@@@@@@@@++@@@@@@@@@@@@@@@@@+@@@@@",
"@@++@@@@@@@@@@@@@@@@@@@@@++@@@@@@@@@@@@@@@..+@@@@@",
"@@++@@@@@@@@@@@@@@@@@@@@@++++@@@@@@@@@@@@.+++@@@@@",
"@@++@@@@@@@@@@@@@@@@@@@@@++++@@@@@@@@@@@@.+++@@@@@",
"@+++++@@@@@@@@@@@@@@@@@@@+++++@@@@@@@@@..@@@@.@@@@",
"+++++++++@@@@@@@@@@@@@@@@++++++@@@@@@..@@@@@@@..++",
"+.+++++..+@@@@@@@@@@@@@@@..@@@@@+++++@@@@@@@@@@@..",
"+.+++++..+@@@@@@@@@@@@@@@..@@@@@+++++@@@@@@@@@@@..",
"@.++@@@++.++@@@@@@@@@@@@.@@@@@@@@@@+@@@@@@@@@@@@@@",
"@.++@@@++.++@@@@@@@@@@@@.@@@@@@@@@@+@@@@@@@@@@@@@@",
"@.@@@@@@@+..++++++++++..@@@@@@@@@@@@@@@@@@@@@@@@@@",
"@@@@@@@@@@+++++@@@@@@+++@@@@@@@@@@@@@@@@@@@@@@@@@@",
"@@++@@@@@@+++++@@@@@@@+++@@@@@@@@@@@+@@@@@@@@@@@@@",
"@@++@@@@@@+++++@@@@@@@+++@@@@@@@@@@@+@@@@@@@@@@@@@",
"@@..++@@@+++++@@@@@@@@@@+++@@@@@@@@+.++@@@@@@@@@@@",
"@@..++@@@+++++@@@@@@@@@@+++@@@@@@@@+.++@@@@@@@@@@@",
"@+..++++++++++@@@@@@@@@@.++++@@@++++.++++@@@@@@@@@",
"+.........+++++@@@@@@@++.+++++++++++.+++++@@@@@@@@",
"+.........+++++@@@@@@@++.+++++++++++.+++++@@@@@@@@",
"+.....++++..++++++++++++...++++++++..+++++++++++++",
"@+..++++++....++++++++...+++++.......+++++++++++++",
"@@++++++++++++.++++++++++++++...+++++....+++++++..",
"@@++++++++++++.++++++++++++++...+++++....+++++++..",
"@@++++++++++++.++++++++++++++...+++++....+++++++..",
"@@+++++++++++++......+++++++++.++++++++.....++....",
"@++++++++++++++++++++++++++++++++++++++++.++++++++",
"@+..+++++++++++++++++++++++++++++++++++++.++++++++",
"@+....+++++++++.++++++++++++++++++++++++++++++++++",
"@+....+++++++++.++++++++++++++++++++++++++++++++++",
"+......+++++....+++++++++++..+++++++++++++++++++++",
"+......+++++....+++++++++++..+++++++++++++++++++++",
"+...+++++++++++++++++++++++..+++++++++++++++++....",
"@...+++++++++++++++++++++.....++++++++++++++++++++",
"@...+++++++++++++++++++++.....++++++++++++++++++++",
"@+..+++++++++++++++++...+++....++++++++..+++++++++",
"@+..++++++..+++++++++.++++++++++++++...+++++++++++",
"@+..++++++..+++++++++.++++++++++++++...+++++++++++",
"@+++++++++..++++++++..+++++++++++++++..+++++++++++",
"@+++++++++..++++++++..+++++++++++++++..+++++++++++",
"++....+++.....+++.......++++++++++++.....+++++++++"};
