/* XPM */
static char * open_xpm[] = {
"50 50 4 1",
" 	c #72751B",
".	c #E17B50",
"+	c #A84111",
"@	c #0C1317",
"                ....................              ",
"            ...........................           ",
"            ...........................           ",
"           ........+++++++++++++.........         ",
"         .......++++++++++++++++++++......        ",
"         .......++++++++++++++++++++......        ",
"         .......++++++++++++++++++++......        ",
"       .....+++++++++++++++++++++++++++.....      ",
"      .....++++++++++@@@@@@@@@@++++++++++.....    ",
"      .....++++++++++@@@@@@@@@@++++++++++.....    ",
"    .....++++++++@@@@@@@@@@@@@@@@@++++++++.....   ",
"    ...+++++++++@@@@@@@@@@@@@@@@@@@@++++++++...   ",
"    ...+++++++++@@@@@@@@@@@@@@@@@@@@++++++++...   ",
"   ...++++++++@@@@@@@@@@@@@@@@@@@@@@@+++++++++... ",
"   ...++++++++@@@@@@@@@@@@@@@@@@@@@@@+++++++++... ",
"   .++++++++@@@@@@@@@@@@@@@@@@@@@@@@@@@++++++++.. ",
"   .++++++++@@@@@@@@@@@@@@@@@@@@@@@@@@@++++++++.. ",
"   .+++++++@@@@@@@@@@@@@@@@@@@@@@@@@@@@@@++++++.. ",
"...++++++@@@@@@@@@@@@@@@@@@@@@@@@@@@@@@@@@+++++++.",
"...++++++@@@@@@@@@@@@@@@@@@@@@@@@@@@@@@@@@+++++++.",
"...++++++@@@@@@@@@@@@@@@@@@@@@@@@@@@@@@@@@+++++++.",
"...++++@@@@@@@@@@@@@@@@@@@@@@@@@@@@@@@@@@@@@+++++.",
"...++++@@@@@@@@@@@@@@@@@@@@@@@@@@@@@@@@@@@@@+++++.",
"...++++@@@@@@@@@@@@@@@@@@@@@@@@@@@@@@@@@@@@@+++++.",
"...++++@@@@@@@@@@@@@@@@@@@@@@@@@@@@@@@@@@@@@+++++.",
"...++++@@@@@@@@@@@@@@@@@@@@@@@@@@@@@@@@@@@@@+++++.",
"+++++++@@@@@@@@@@@@@@@@@@@@@@@@@@@@@@@@@@@@@++++++",
"+++++++@@@@@@@@@@@@@@@@@@@@@@@@@@@@@@@@@@@@@++++++",
"+++++++@@@@@@@@@@@@@@@@@@@@@@@@@@@@@@@@@@@@@++++++",
"+++++++@@@@@@@@@@@@@@@@@@@@@@@@@@@@@@@@@@@@@++++++",
"+++++++@@@@@@@@@@@@@@@@@@@@@@@@@@@@@@@@@@@@@++++++",
"+++++++@@@@@@@@@@@@@@@@@@@@@@@@@@@@@@@@@@@@@++++++",
"+++++++@@@@@@@@@@@@@@@@@@@@@@@@@@@@@@@@@@@@@++++++",
"+++++++@@@@@@@@@@@@@@@@@@@@@@@@@@@@@@@@@@@@@++++++",
"+++++++@@@@@@@@@@@@@@@@@@@@@@@@@@@@@@@@@@@@@++++++",
"+++++++@@@@@@@@@@@@@@@@@@@@@@@@@@@@@@@@@@@@@++++++",
"+++++++@@@@@@@@@@@@@@@@@@@@@@@@@@@@@@@@@@@@@++++++",
"+++++++@@@@@@@@@@@@@@@@@@@@@@@@@@@@@@@@@@@@@++++++",
"+++++++@@@@@@@@@@@@@@@@@@@@@@@@@@@@@@@@@@@@@++++++",
"+++++++@@@@@@@@@@@@@@@@@@@@@@@@@@@@@@@@@@@@@++++++",
"+++++++@@@@@@@@@@@@@@@@@@@@@@@@@@@@@@@@@@@@@++++++",
"+++++++@@@@@@@@@@@@@@@@@@@@@@@@@@@@@@@@@@@@@++++++",
"+++++++@@@@@@@@@@@@@@@@@@@@@@@@@@@@@@@@@@@@@++++++",
"+++++++@@@@@@@@@@@@@@@@@@@@@@@@@@@@@@@@@@@@@++++++",
"+++++++@@@@@@@@@@@@@@@@@@@@@@@@@@@@@@@@@@@@@++++++",
"+++++++@@@@@@@@@@@@@@@@@@@@@@@@@@@@@@@@@@@@@++++++",
"+++++++@@@@@@@@@@@@@@@@@@@@@@@@@@@@@@@@@@@@@++++++",
"+++++++@@@@@@@@@@@@@@@@@@@@@@@@@@@@@@@@@@@@@++++++",
"+++++++@@@@@@@@@@@@@@@@@@@@@@@@@@@@@@@@@@@@@++++++",
"+++++++@@@@                              @@@++++++"};
