/* XPM */
static char * Persona3_xpm[] = {
"50 50 19 1",
" 	c None",
".	c #C7CFDD",
"+	c #92A1B9",
"@	c #100515",
"#	c #E69C69",
"$	c #F6CA9F",
"%	c #131313",
"&	c #858585",
"*	c #571C27",
"=	c #221C36",
"-	c #FFFFFF",
";	c #B4B4B4",
">	c #424C6E",
",	c #2A2F4E",
"'	c #BF6F4A",
")	c #5D2C28",
"!	c #391F21",
"~	c #1A1932",
"{	c #0E071B",
"                                                  ",
"                                                  ",
"                                                  ",
"                                                  ",
"                                                  ",
"                                                  ",
"                                                  ",
"                                                  ",
"                                                  ",
"                                                  ",
"                                                  ",
"                                                  ",
"                          ...                     ",
"                          ...                     ",
"                          +..+@+++..              ",
"                     ...   ++@++.....             ",
"                   ......    +++#####  .          ",
"                 ............++#++.$+..           ",
"                 ............++#++.$+..           ",
"                 ....+...+++++##%%%$%             ",
"                ....+ +++  ++++####$#             ",
"                ...+         ++.##...             ",
"                +++       &&&&++..+++..           ",
"                +++       &&&&++..+++..           ",
"                *++  ===&&----;++++..++           ",
"                *** ==&&------;>++++.++           ",
"                ***===-------;;>  +++++           ",
"                ****=----;;&&;>,   ++             ",
"                ****=----;;&&;>,   ++             ",
"                ****----;&&;;>,                   ",
"                '***)!!!&;;>>,                    ",
"                '***))!!&;;>>,                    ",
"                '''**$###&>,,,                    ",
"                '''**$###&>,,,                    ",
"                    *$++++,,,,~                   ",
"                     $++{{,,,,,~                  ",
"                     ,++{{,,,,,~~~                ",
"                    ,,,,,>>,,,~~~~                ",
"                    ,,,,,>>,,,~~~~                ",
"              !     ,,>>>>>>>,~~~~~               ",
"            !!!!   ,,,>>>>>,,~~~~~~               ",
"           !)))!!!!,,>>>>>>~~~~~~~~~              ",
"           )   ))!!,,>>>>>,~~~~~~~~~              ",
"           )   ))!!,,>>>>>,~~~~~~~~~              ",
"                ),,,>>>>>>   ~~~~~~~              ",
"                   ,>>>>>     ~~~~~~              ",
"                    >>>>       ~~~~!!             ",
"                                  !!!!!!          ",
"                                  !!!!!!          ",
"                                   !!!!!!         "};
